<svg width="457" height="453" viewBox="0 0 457 453" fill="none" xmlns="http://www.w3.org/2000/svg">
<g clip-path="url(#clip0_5_86)">
<path d="M142.907 23.3441V309.569H327.981V16.42C298.377 4.50652 266.595 -1.03427 234.706 0.158784C202.817 1.35184 171.538 9.25195 142.907 23.3441Z" fill="white"/>
<path d="M124.749 35.2186V310.382H187.675L186.55 294.807L180.363 124.286H304.96L298.773 294.807L297.648 310.382H361.278V40.2006C360.111 39.3397 358.938 38.4897 357.749 37.6558C357.518 37.4944 358.537 32.9316 358.3 32.7702C344.615 23.1962 329.81 15.3314 314.216 9.35074L309.608 60.0314H288.018V5.99412C286.608 5.64441 285.199 5.31623 283.779 5.00956C283.779 19.6023 277.982 33.5973 267.663 43.9159C257.344 54.2345 243.349 60.0315 228.757 60.0315H202.249V3.58386C200.834 3.8421 199.419 4.11648 198.015 4.407V60.0315H175.709L172.191 11.4926C157.016 16.7538 142.514 23.7837 128.983 32.4371C128.515 32.7384 128.042 33.0343 127.574 33.3463C126.627 33.9597 125.685 34.5838 124.749 35.2186ZM288.018 64.2709H309.302L305.982 110.163H288.018V64.2709ZM202.249 64.2709H283.779V110.163H252.192V109.254C252.192 108.817 252.107 108.385 251.939 107.981C251.772 107.578 251.528 107.211 251.219 106.902C250.91 106.593 250.543 106.349 250.14 106.181C249.736 106.014 249.304 105.929 248.867 105.929H235.751C235.314 105.928 234.881 106.013 234.477 106.18C234.073 106.347 233.705 106.592 233.396 106.901C233.087 107.209 232.841 107.576 232.674 107.98C232.507 108.384 232.42 108.817 232.42 109.254V110.163H202.249V64.2709ZM179.335 110.163L176.016 64.2709H198.015V110.163H179.335Z" fill="#F2F2F2"/>
<path d="M29.6076 302.17C29.613 302.186 29.6183 302.197 29.6237 302.213C29.6614 302.326 29.6991 302.428 29.7421 302.541V302.547C31.5767 307.701 33.5924 312.769 35.7893 317.751L450.721 317.299C452.949 312.215 454.993 307.037 456.854 301.766C456.861 301.755 456.864 301.742 456.865 301.729L29.6076 302.17Z" fill="#CCCCCC"/>
<path d="M185.416 223.667C185.085 225.045 184.456 226.334 183.574 227.442C182.691 228.551 181.576 229.452 180.307 230.083C179.038 230.714 177.646 231.06 176.229 231.094C174.812 231.129 173.405 230.853 172.106 230.285L148.72 255.581L144.437 238.199L167.302 216.843C168.4 214.725 170.237 213.083 172.465 212.229C174.693 211.375 177.157 211.368 179.39 212.209C181.623 213.05 183.47 214.681 184.58 216.793C185.691 218.904 185.989 221.35 185.416 223.667Z" fill="#FFB6B6"/>
<path d="M158.807 246.089L127.033 281.753L126.775 281.705C126.667 281.689 124.257 281.258 120.437 280.559C106.621 278.03 74.3943 271.999 66.3995 269.207C61.7893 267.653 57.6523 264.947 54.3804 261.347C55.209 256.833 56.0967 253.454 56.9736 251.808C57.6139 250.608 57.4955 249.042 57.5224 247.256C59.6204 245.808 62.0657 244.942 64.6079 244.749C80.5058 243.599 96.4535 246.157 111.194 252.222L119.576 255.687L119.92 255.434L148.23 234.656L148.424 234.516L158.162 245.368L158.807 246.089Z" fill="#1967D2"/>
<path d="M225.122 452.29C224.697 452.258 224.277 452.22 223.852 452.183C218.521 451.736 213.243 451.105 208.019 450.289L202.284 436.936L199.535 430.533L209.913 426.073L216.659 423.179L219.866 434.197L221.195 438.776L224.337 449.579L225.122 452.29Z" fill="#FFB6B6"/>
<path d="M108.861 390.153V408.907C112.008 411.232 115.218 413.473 118.491 415.633V390.153H108.861Z" fill="#CACACA"/>
<path d="M75.0307 378.273C77.7369 381.275 80.5238 384.2 83.3913 387.048C90.1403 393.77 97.3064 400.059 104.847 405.878H147.78C148.92 405.878 150.046 405.635 151.085 405.165C152.123 404.694 153.049 404.008 153.8 403.151L153.806 403.134C154.701 402.124 155.323 400.902 155.613 399.584L155.619 399.573C155.74 399.007 155.801 398.43 155.802 397.851V386.3C155.8 384.173 154.955 382.133 153.451 380.628C151.947 379.123 149.907 378.276 147.78 378.273H75.0307Z" fill="#3F3D56"/>
<path d="M57.3411 333.188L61.9949 353.127C61.5398 356.016 61.3883 358.944 61.5429 361.864C63.7488 364.823 66.0245 367.723 68.3702 370.564C70.533 373.184 72.7532 375.754 75.0307 378.273C77.7369 381.275 80.5238 384.2 83.3913 387.048C90.8588 389.394 99.6606 390.352 108.861 390.416C112.035 390.443 115.257 390.357 118.491 390.185C131.602 389.496 124.42 387.393 135.282 385.208C138.155 384.638 140.856 384.057 143.341 383.492C148.049 382.432 151.987 381.442 154.839 380.689C158.05 379.85 169.643 374.059 169.643 374.059L178.789 393.965L186.859 412.795L197.486 436.582C198.853 436.706 200.221 436.81 201.591 436.895C203.044 436.997 204.498 437.079 205.954 437.142C207.106 437.201 208.252 437.244 209.409 437.277L209.801 437.4L210.124 437.298L215.31 435.646L217.059 435.092L223.348 433.091C223.348 433.091 221.944 428.668 219.485 421.292C218.582 418.586 212.179 398.578 205.481 381.109C203.496 375.922 201.441 370.661 199.326 365.426C197.594 361.127 195.829 356.845 194.043 352.621C190.939 345.299 175.939 341.35 158.276 339.279C157.378 339.176 156.474 339.074 155.565 338.977C146.564 338.03 137.014 337.541 128.084 337.315C123.613 337.202 139.742 337.159 135.729 337.154C134.432 337.154 133.171 337.157 131.946 337.164H131.941C128.632 337.18 125.587 337.229 122.908 337.283C122.386 337.293 121.88 337.31 121.385 337.32H121.38C121.046 337.326 120.718 337.336 120.395 337.342C114.536 337.492 110.943 337.675 110.943 337.675L109.549 326.743L109.264 324.537L108.995 322.439V322.434L108.963 322.17L108.742 322.165L104.869 322.089L72.3084 321.455L58.4399 320.867L57.3411 333.188Z" fill="#2F2E41"/>
<path d="M163.187 373.521C159.265 380.225 156.209 392.932 152.19 399.227C144.48 411.31 139.961 417.901 134.619 425.336C129.099 422.329 123.724 419.094 118.495 415.631C115.702 413.791 112.953 411.884 110.247 409.912L113.448 402.611L115.267 399.033L123.434 382.952L132.59 364.924L135.775 366.408L163.187 373.521Z" fill="#2F2E41"/>
<path d="M438.412 281.403C438.566 280.939 438.619 280.447 438.567 279.961C438.516 279.475 438.36 279.005 438.112 278.584C437.864 278.163 437.528 277.799 437.127 277.519C436.727 277.238 436.271 277.047 435.79 276.957C435.612 276.919 435.431 276.897 435.249 276.89L413.325 276.324C412.833 276.319 412.346 276.417 411.894 276.612C411.442 276.807 411.037 277.094 410.703 277.455C410.396 277.39 410.083 277.357 409.769 277.358C409.086 277.34 408.406 277.457 407.769 277.702C407.131 277.947 406.548 278.315 406.053 278.786C405.558 279.256 405.161 279.82 404.883 280.444C404.606 281.068 404.454 281.741 404.437 282.424C404.42 283.106 404.538 283.786 404.783 284.423C405.029 285.06 405.398 285.643 405.869 286.138C406.34 286.633 406.903 287.03 407.528 287.306C408.152 287.583 408.825 287.734 409.508 287.75C410.293 287.766 411.072 287.606 411.788 287.282L413.805 308.849C413.999 309.558 414.417 310.185 414.997 310.637C415.577 311.088 416.288 311.34 417.022 311.355L431.275 311.721C432.005 311.734 432.72 311.516 433.317 311.097C433.915 310.679 434.365 310.081 434.602 309.391L438.412 281.403ZM409.553 286.263C408.569 286.237 407.636 285.822 406.957 285.109C406.279 284.396 405.911 283.443 405.934 282.459C405.957 281.475 406.369 280.541 407.08 279.86C407.791 279.18 408.743 278.809 409.727 278.829C409.797 278.829 409.858 278.862 409.928 278.863C409.772 279.458 409.776 280.084 409.939 280.678L411.374 285.818C410.819 286.129 410.189 286.283 409.553 286.263Z" fill="#CCCCCC"/>
<path d="M435.79 276.957C435.323 279.628 430.071 281.505 423.757 281.179C417.95 280.911 413.203 278.872 412.333 276.456C412.655 276.361 412.99 276.316 413.325 276.324L435.249 276.89C435.431 276.896 435.612 276.919 435.79 276.957Z" fill="white"/>
<path d="M298.53 248.735V303.913H337.185V248.735C337.186 248.338 337.059 247.952 336.824 247.632C336.589 247.312 336.257 247.077 335.878 246.96C335.699 246.901 335.512 246.871 335.324 246.874H300.396C300.152 246.873 299.909 246.921 299.683 247.014C299.456 247.107 299.251 247.244 299.077 247.417C298.904 247.59 298.766 247.796 298.672 248.022C298.578 248.248 298.53 248.49 298.53 248.735ZM313.615 267.694C313.625 266.606 314.064 265.566 314.837 264.801C315.61 264.035 316.654 263.605 317.742 263.605C318.83 263.605 319.874 264.035 320.646 264.801C321.419 265.566 321.858 266.606 321.868 267.694V274.097C321.863 275.188 321.426 276.232 320.653 277.002C319.879 277.771 318.833 278.203 317.742 278.203C316.651 278.203 315.604 277.771 314.831 277.002C314.058 276.232 313.62 275.188 313.615 274.097V267.694Z" fill="#CCCCCC"/>
<path d="M298.411 302.148V307.469C298.412 307.745 298.522 308.009 298.716 308.204C298.91 308.4 299.174 308.511 299.45 308.513H336.265C336.541 308.512 336.805 308.401 337 308.205C337.194 308.01 337.304 307.745 337.304 307.469V302.148H298.411Z" fill="#3F3D56"/>
<path d="M237.719 165.603V266.35C237.72 267.633 238.23 268.864 239.138 269.772C240.046 270.68 241.277 271.191 242.561 271.192H391.857C393.141 271.191 394.372 270.68 395.28 269.772C396.188 268.864 396.699 267.633 396.7 266.35V165.603C396.696 164.32 396.185 163.091 395.278 162.184C394.37 161.277 393.14 160.767 391.857 160.766H242.561C241.278 160.768 240.048 161.277 239.141 162.184C238.233 163.091 237.722 164.32 237.719 165.603Z" fill="#CCCCCC"/>
<path d="M241.221 166.856V265.106C241.222 265.792 241.495 266.45 241.98 266.935C242.465 267.42 243.123 267.693 243.809 267.694H390.615C391.301 267.693 391.958 267.42 392.443 266.935C392.928 266.45 393.201 265.792 393.202 265.106V166.856C393.202 166.169 392.93 165.51 392.445 165.024C391.96 164.538 391.301 164.264 390.615 164.263H243.809C243.122 164.264 242.464 164.538 241.979 165.024C241.494 165.51 241.221 166.169 241.221 166.856Z" fill="white"/>
<path d="M271.606 308.153C271.755 308.34 271.945 308.491 272.161 308.594C272.377 308.698 272.614 308.751 272.854 308.75H360.194C360.433 308.749 360.669 308.696 360.884 308.593C361.1 308.49 361.29 308.34 361.44 308.155C361.591 307.969 361.698 307.753 361.754 307.521C361.81 307.288 361.814 307.047 361.765 306.813L360.409 300.373C360.353 300.11 360.232 299.866 360.057 299.662C359.882 299.458 359.659 299.301 359.408 299.205C359.227 299.134 359.033 299.098 358.838 299.098H274.204C274.009 299.098 273.816 299.134 273.634 299.205C273.383 299.301 273.16 299.458 272.985 299.662C272.811 299.866 272.69 300.11 272.633 300.373L271.278 306.813C271.229 307.047 271.234 307.288 271.291 307.52C271.347 307.751 271.455 307.968 271.606 308.153Z" fill="#F2F2F2"/>
<path d="M385.85 177.797H248.485C248.342 177.794 248.206 177.735 248.106 177.633C248.006 177.531 247.95 177.394 247.95 177.251C247.95 177.108 248.006 176.971 248.106 176.869C248.206 176.767 248.342 176.708 248.485 176.705H385.85C385.993 176.708 386.129 176.767 386.229 176.869C386.329 176.971 386.385 177.108 386.385 177.251C386.385 177.394 386.329 177.531 386.229 177.633C386.129 177.735 385.993 177.794 385.85 177.797Z" fill="#3F3D56"/>
<path d="M257.835 173.916C259.604 173.916 261.037 172.45 261.037 170.643C261.037 168.835 259.604 167.37 257.835 167.37C256.067 167.37 254.634 168.835 254.634 170.643C254.634 172.45 256.067 173.916 257.835 173.916Z" fill="#3F3D56"/>
<path d="M268.895 173.916C270.663 173.916 272.096 172.45 272.096 170.643C272.096 168.835 270.663 167.37 268.895 167.37C267.127 167.37 265.693 168.835 265.693 170.643C265.693 172.45 267.127 173.916 268.895 173.916Z" fill="#3F3D56"/>
<path d="M279.954 173.916C281.722 173.916 283.155 172.45 283.155 170.643C283.155 168.835 281.722 167.37 279.954 167.37C278.186 167.37 276.753 168.835 276.753 170.643C276.753 172.45 278.186 173.916 279.954 173.916Z" fill="#3F3D56"/>
<path d="M379.191 168.179H371.336C371.181 168.183 371.033 168.247 370.924 168.358C370.816 168.469 370.755 168.618 370.755 168.774C370.755 168.929 370.816 169.078 370.924 169.189C371.033 169.301 371.181 169.365 371.336 169.368H379.191C379.347 169.366 379.496 169.303 379.606 169.191C379.716 169.08 379.777 168.93 379.777 168.774C379.777 168.618 379.716 168.467 379.606 168.356C379.496 168.245 379.347 168.181 379.191 168.179Z" fill="#3F3D56"/>
<path d="M379.191 170.412H371.336C371.181 170.416 371.033 170.48 370.924 170.591C370.816 170.702 370.755 170.851 370.755 171.007C370.755 171.162 370.816 171.311 370.924 171.422C371.033 171.533 371.181 171.598 371.336 171.601H379.191C379.347 171.599 379.496 171.535 379.606 171.424C379.716 171.313 379.777 171.163 379.777 171.007C379.777 170.85 379.716 170.7 379.606 170.589C379.496 170.478 379.347 170.414 379.191 170.412Z" fill="#3F3D56"/>
<path d="M379.191 172.645H371.336C371.181 172.648 371.033 172.713 370.924 172.824C370.816 172.935 370.755 173.084 370.755 173.239C370.755 173.395 370.816 173.544 370.924 173.655C371.033 173.766 371.181 173.83 371.336 173.834H379.191C379.347 173.832 379.496 173.768 379.606 173.657C379.716 173.546 379.777 173.396 379.777 173.239C379.777 173.083 379.716 172.933 379.606 172.822C379.496 172.711 379.347 172.647 379.191 172.645Z" fill="#3F3D56"/>
<path d="M333.287 207.495H310.099C308.967 207.495 308.049 208.413 308.049 209.545V211.28C308.049 212.412 308.967 213.33 310.099 213.33H333.287C334.419 213.33 335.337 212.412 335.337 211.28V209.545C335.337 208.413 334.419 207.495 333.287 207.495Z" fill="#1967D2"/>
<path d="M347.145 219.165H296.241C295.109 219.165 294.191 220.083 294.191 221.215V222.95C294.191 224.082 295.109 225 296.241 225H347.145C348.277 225 349.195 224.082 349.195 222.95V221.215C349.195 220.083 348.277 219.165 347.145 219.165Z" fill="#1967D2"/>
<path d="M347.145 230.835H296.241C295.109 230.835 294.191 231.753 294.191 232.885V234.62C294.191 235.752 295.109 236.67 296.241 236.67H347.145C348.277 236.67 349.195 235.752 349.195 234.62V232.885C349.195 231.753 348.277 230.835 347.145 230.835Z" fill="#1967D2"/>
<path d="M226.941 312.188C233.923 312.188 239.584 310.382 239.584 308.153C239.584 305.925 233.923 304.118 226.941 304.118C219.958 304.118 214.297 305.925 214.297 308.153C214.297 310.382 219.958 312.188 226.941 312.188Z" fill="#3F3D56"/>
<path d="M226.941 309.498C233.923 309.498 239.584 307.692 239.584 305.463C239.584 303.235 233.923 301.428 226.941 301.428C219.958 301.428 214.297 303.235 214.297 305.463C214.297 307.692 219.958 309.498 226.941 309.498Z" fill="#3F3D56"/>
<path d="M227.883 308.167L225.999 308.139L226.518 272.959C226.594 267.219 225.162 261.559 222.367 256.545C219.571 251.531 215.509 247.339 210.586 244.385L174.627 222.891L175.594 221.274L211.553 242.769C216.759 245.892 221.055 250.326 224.012 255.629C226.968 260.931 228.482 266.917 228.402 272.988L227.883 308.167Z" fill="#3F3D56"/>
<path d="M180.134 205.663C180.134 203.137 178.087 201.09 175.561 201.09C173.035 201.09 170.988 203.137 170.988 205.663V234.177C170.988 236.703 173.035 238.75 175.561 238.75C178.087 238.75 180.134 236.703 180.134 234.177V205.663Z" fill="#1967D2"/>
<path d="M172.361 246.607C168.748 246.602 165.282 245.175 162.714 242.635C160.145 240.094 158.679 236.645 158.634 233.033L158.479 218.585L160.363 218.565L160.518 233.013C160.542 235.222 161.184 237.379 162.371 239.242C163.559 241.104 165.244 242.597 167.236 243.55C169.229 244.504 171.448 244.88 173.644 244.636C175.839 244.393 177.922 243.539 179.657 242.172L192.478 232.072L193.644 233.553L180.823 243.653C178.415 245.562 175.433 246.603 172.361 246.607Z" fill="#3F3D56"/>
<path d="M161.304 230.411C164.424 230.411 166.953 224.269 166.953 216.692C166.953 209.115 164.424 202.973 161.304 202.973C158.184 202.973 155.655 209.115 155.655 216.692C155.655 224.269 158.184 230.411 161.304 230.411Z" fill="#3F3D56"/>
<path d="M121.47 290.539C120.98 287.461 120.652 284.088 120.437 280.559C119.931 272.483 119.98 263.579 119.92 255.434C119.895 251.732 119.602 247.69 119.221 243.937C118.889 240.518 117.748 237.227 115.893 234.336C114.038 231.445 111.522 229.036 108.553 227.309C106.531 226.14 104.709 224.655 103.156 222.911C102.317 221.975 102.215 219.813 102.107 217.526C101.978 214.745 101.843 211.861 100.353 210.376L100.289 210.311L100.202 210.279C93.9454 208.197 83.3736 209.547 80.2316 210.274L80.0971 210.306L80.0111 210.414C78.7145 212.13 78.7844 214.874 78.8544 217.526C78.9135 219.909 78.9727 222.164 77.9182 222.842C77.1004 223.369 76.315 223.869 75.5564 224.353C66.2543 230.288 61.5844 233.268 58.1626 242.958C57.7061 244.344 57.4896 245.797 57.5224 247.256C57.4955 249.042 57.6139 250.608 56.9736 251.808C56.0967 253.454 55.2089 256.833 54.3804 261.347C50.0387 285.067 47.4617 340.224 58.0712 341.515C58.8997 341.617 57.2104 343.28 56.6293 344.113C55.7954 345.313 55.0798 346.346 55.4941 347.137C55.7739 347.675 56.5056 347.928 57.786 347.928C62.6173 347.928 112.281 340.638 113.69 338.013C113.782 337.84 113.792 338.163 113.69 338.013C136.975 334.973 124.649 310.655 121.47 290.539Z" fill="#1967D2"/>
<path d="M177.518 314.295C176.522 313.261 175.311 312.459 173.971 311.943C172.63 311.428 171.193 311.213 169.761 311.313C168.328 311.413 166.935 311.826 165.68 312.523C164.424 313.22 163.337 314.183 162.494 315.346L129.081 305.253L134.261 322.635L165.197 329.555C167.243 330.841 169.691 331.332 172.076 330.935C174.46 330.537 176.616 329.279 178.135 327.398C179.654 325.517 180.43 323.144 180.316 320.73C180.202 318.315 179.207 316.025 177.518 314.295Z" fill="#FFB6B6"/>
<path d="M137.183 324.249L91.3015 315.828C91.1157 315.348 72.6961 267.668 70.4202 256.957C68.9797 250.5 69.7911 243.745 72.7196 237.812L72.8004 237.67L72.9509 237.605C76.0279 236.293 79.4601 236.069 82.6815 236.97C85.9029 237.871 88.7213 239.842 90.6719 242.559C100.02 255.729 106.179 270.891 108.663 286.849L110.065 295.927L131.929 302.283L137.183 324.249Z" fill="#1967D2"/>
<path d="M122.151 195.404C119.316 200.587 114.802 204.65 109.35 206.924C103.898 209.198 97.8348 209.547 92.1579 207.915C86.481 206.282 81.5293 202.765 78.1183 197.943C74.7073 193.12 73.0404 187.28 73.3921 181.383C73.7438 175.487 76.0931 169.886 80.0532 165.503C84.0132 161.12 89.3479 158.216 95.1786 157.27C101.009 156.324 106.988 157.392 112.131 160.298C117.274 163.204 121.274 167.774 123.472 173.257C123.591 173.555 123.698 173.852 123.805 174.162C125.047 177.618 125.543 181.299 125.257 184.96C124.972 188.622 123.913 192.182 122.151 195.404Z" fill="#FFB6B6"/>
<path d="M125.887 174.162C124.769 171.032 125.257 172.662 124.126 169.544C124.864 172.305 123.698 173.852 123.805 174.162H92.8514V156.168C101.92 152.574 110.786 149.516 116.141 156.168C120.913 156.168 125.49 158.064 128.864 161.439C132.238 164.813 134.134 169.39 134.134 174.162L125.887 174.162Z" fill="#2F2E41"/>
<path d="M100.927 223.642C100.903 223.309 100.867 222.963 100.82 222.63C100.404 220.186 99.7298 217.792 98.8086 215.49C97.9161 212.979 97.0116 210.456 96.1073 207.945C97.2719 212.503 96.9167 217.317 95.0957 221.654C89.8713 217.584 92.3827 211.458 86.3369 208.278C70.1118 199.745 64.4971 185.955 69.0358 164.774C70.6498 157.242 80.0513 149.71 96.4741 149.71C112.909 149.71 120.235 157.882 120.556 174.304C100.325 179.065 104.747 221.976 100.927 223.642Z" fill="#2F2E41"/>
<path d="M70.6696 165.557C76.6013 165.557 81.4099 160.748 81.4099 154.817C81.4099 148.885 76.6013 144.076 70.6696 144.076C64.7379 144.076 59.9293 148.885 59.9293 154.817C59.9293 160.748 64.7379 165.557 70.6696 165.557Z" fill="#2F2E41"/>
<path d="M65.6455 151.696C63.8138 153.828 60.946 154.657 58.3589 155.767C53.7931 157.77 49.7848 160.856 46.6815 164.759C43.5783 168.661 41.4738 173.261 40.5504 178.161C39.8352 182.152 39.9287 186.283 38.799 190.174C37.6759 194.064 34.8951 197.881 30.9042 198.557C28.2035 199.018 25.4961 197.975 22.9559 196.945C21.5587 196.384 20.1616 195.82 18.7645 195.254C20.2218 191.598 21.6768 187.941 23.1297 184.284C20.7947 187.735 18.0792 190.913 15.0343 193.757C10.0273 191.738 5.01589 189.719 0 187.7C12.3403 187.747 10.2345 175.768 12.9954 163.748C14.5129 157.144 27.4347 152.672 29.9683 146.388C31.3373 142.979 33.6541 140.035 36.6445 137.902C39.6349 135.769 43.1736 134.538 46.842 134.354C50.5103 134.17 54.1546 135.04 57.3437 136.862C60.5327 138.685 63.1329 141.382 64.8366 144.636C67.3702 145.646 67.4437 149.59 65.6455 151.696Z" fill="#2F2E41"/>
<path d="M113.738 150.117C114.753 150.455 115.592 151.183 116.071 152.141C116.549 153.098 116.627 154.206 116.289 155.221L106.789 183.688C106.622 184.191 106.356 184.656 106.009 185.056C105.662 185.456 105.239 185.784 104.765 186.021C104.291 186.258 103.775 186.399 103.246 186.436C102.718 186.474 102.187 186.406 101.684 186.239C100.669 185.9 99.8303 185.172 99.3521 184.214C98.8738 183.257 98.7954 182.149 99.1341 181.134L108.634 152.667C108.972 151.652 109.7 150.813 110.658 150.335C111.615 149.856 112.723 149.778 113.738 150.117Z" fill="white"/>
<path d="M100.829 198.723C106.772 198.723 111.589 193.906 111.589 187.963C111.589 182.02 106.772 177.203 100.829 177.203C94.8867 177.203 90.0692 182.02 90.0692 187.963C90.0692 193.906 94.8867 198.723 100.829 198.723Z" fill="white"/>
<path d="M100.829 190.653C102.315 190.653 103.519 189.449 103.519 187.963C103.519 186.477 102.315 185.273 100.829 185.273C99.3437 185.273 98.1393 186.477 98.1393 187.963C98.1393 189.449 99.3437 190.653 100.829 190.653Z" fill="#1967D2"/>
<path d="M256.273 448.309C256.851 449.709 257.486 451.11 258.095 452.517L257.812 452.535C257.718 452.535 257.63 452.548 257.536 452.554C253.096 452.831 248.616 452.977 244.097 452.994C243.889 453 243.688 453 243.481 453C243.481 452.988 243.487 452.981 243.487 452.969C243.952 452.99 244.411 452.867 244.804 452.619C245.197 452.37 245.504 452.007 245.683 451.578C245.862 451.149 245.906 450.675 245.807 450.221C245.709 449.767 245.474 449.354 245.133 449.037C245.07 448.805 245.032 448.642 244.976 448.416C244.994 448.364 245.015 448.314 245.039 448.265C245.507 447.16 246.291 446.217 247.293 445.556C248.295 444.895 249.47 444.545 250.671 444.55C251.871 444.554 253.043 444.914 254.04 445.583C255.037 446.251 255.814 447.2 256.273 448.309Z" fill="#F2F2F2"/>
<path d="M297.696 427.798C297.69 427.849 297.684 427.892 297.678 427.943C296.882 428.264 296.108 428.638 295.36 429.061C294.927 429.299 294.506 429.557 294.098 429.827C293.582 430.171 293.183 430.664 292.952 431.24C292.721 431.815 292.669 432.447 292.804 433.053C292.938 433.659 293.252 434.209 293.705 434.633C294.158 435.057 294.728 435.334 295.342 435.429L295.404 435.441C295.448 435.447 295.486 435.454 295.53 435.46C293.159 441.186 289.074 446.038 283.837 449.351C283.585 449.402 283.34 449.446 283.089 449.489C281.821 449.722 280.558 449.935 279.29 450.13C274.881 450.846 270.429 451.424 265.932 451.863C266.833 447.309 267.287 442.677 267.289 438.035C267.292 435.435 267.147 432.837 266.855 430.254C266.617 428.137 266.29 426.027 265.863 423.942C265.65 422.887 265.411 421.834 265.147 420.784C263.739 415.198 261.682 409.796 259.018 404.688C256.855 400.537 254.291 396.608 251.363 392.957C247.87 391.053 245.046 388.122 243.274 384.56C242.628 383.281 242.174 381.914 241.924 380.503C242.313 380.56 242.715 380.591 243.111 380.617C243.23 380.623 243.362 380.629 243.487 380.635H243.531C243.964 380.656 244.394 380.55 244.769 380.331C245.143 380.113 245.446 379.79 245.641 379.403C245.836 379.016 245.916 378.581 245.869 378.15C245.822 377.719 245.651 377.31 245.378 376.974C245.208 376.767 245.039 376.553 244.869 376.346C244.612 376.026 244.341 375.706 244.084 375.385C244.055 375.355 244.028 375.324 244.002 375.291C243.707 374.921 243.406 374.556 243.111 374.192C243.65 373.349 244.379 372.643 245.239 372.132C248.216 370.386 252.323 371.592 254.477 374.286C256.631 376.98 257.04 380.761 256.292 384.121C255.556 386.985 254.337 389.704 252.688 392.159C252.851 392.366 253.014 392.561 253.177 392.768C255.911 396.282 258.318 400.039 260.368 403.991C260.538 404.305 260.701 404.619 260.858 404.939C260.333 400.124 260.959 395.253 262.685 390.727C264.431 386.513 267.709 382.959 270.592 379.317C274.059 374.939 281.167 376.849 281.777 382.4C281.783 382.45 281.789 382.507 281.796 382.557C281.368 382.802 280.948 383.059 280.54 383.329C280.024 383.674 279.624 384.166 279.392 384.741C279.161 385.316 279.108 385.948 279.242 386.554C279.376 387.159 279.689 387.71 280.142 388.134C280.594 388.559 281.164 388.836 281.777 388.931L281.839 388.944C281.336 394.054 279.562 398.958 276.679 403.208C273.797 407.458 269.897 410.92 265.336 413.279C265.078 413.411 264.833 413.543 264.582 413.662C265.371 415.879 266.048 418.134 266.61 420.419C266.887 421.487 267.125 422.561 267.345 423.641C267.96 426.628 268.388 429.65 268.626 432.69C268.917 436.519 268.901 440.364 268.576 444.189L268.595 444.057C269.423 439.803 271.692 435.964 275.019 433.187C279.968 429.123 286.951 427.629 292.289 424.363C292.856 423.999 293.515 423.805 294.189 423.803C294.862 423.801 295.522 423.992 296.091 424.353C296.659 424.714 297.112 425.231 297.397 425.841C297.681 426.452 297.785 427.131 297.696 427.798Z" fill="#F2F2F2"/>
</g>
<defs>
<clipPath id="clip0_5_86">
<rect width="456.865" height="453" fill="white"/>
</clipPath>
</defs>
</svg>
