<svg width="22" height="24" viewBox="0 0 22 24" fill="none" xmlns="http://www.w3.org/2000/svg">
<path d="M15.7581 20.7822C16.838 19.6128 17.6944 18.2232 18.2781 16.6932C18.8618 15.1633 19.1614 13.5231 19.1595 11.8671C19.1614 10.211 18.8618 8.57087 18.2781 7.04091C17.6944 5.51096 16.838 4.12136 15.7581 2.95197L14.791 4.00071C15.7438 5.03254 16.4995 6.25868 17.0145 7.60865C17.5295 8.95863 17.7938 10.4058 17.7921 11.8671C17.7921 14.9392 16.6447 17.7205 14.791 19.7334L15.7581 20.7822Z" fill="#202124"/>
<path d="M13.8251 18.6847C14.6509 17.7904 15.3057 16.7277 15.7521 15.5577C16.1984 14.3878 16.4274 13.1335 16.426 11.8671C16.4274 10.6007 16.1984 9.34646 15.7521 8.17647C15.3057 7.00648 14.6509 5.94381 13.8251 5.0495L12.8594 6.09825C13.5581 6.85499 14.1122 7.7542 14.4898 8.74421C14.8675 9.73422 15.0612 10.7955 15.06 11.8671C15.0616 12.9388 14.8681 14.0004 14.4907 14.9906C14.1133 15.9809 13.5593 16.8804 12.8607 17.6375L13.8251 18.6847Z" fill="#202124"/>
<path d="M11.894 16.5873C12.4657 15.9681 12.919 15.2323 13.228 14.4223C13.537 13.6123 13.6955 12.7439 13.6944 11.8671C13.6955 10.9904 13.537 10.122 13.228 9.31198C12.919 8.50194 12.4657 7.7662 11.894 7.14702L10.9283 8.19577C11.3729 8.67738 11.7255 9.24966 11.9658 9.87972C12.206 10.5098 12.3293 11.1852 12.3284 11.8671C12.3292 12.5491 12.2059 13.2245 11.9656 13.8545C11.7254 14.4846 11.3728 15.0568 10.9283 15.5385L11.894 16.5873ZM9.17568 5.2661C9.2914 5.32663 9.38905 5.42137 9.45743 5.53945C9.52581 5.65752 9.56214 5.79414 9.56226 5.93362V17.8007C9.56208 17.9402 9.52563 18.0769 9.45712 18.195C9.38861 18.3131 9.29081 18.4077 9.17496 18.4682C9.05911 18.5286 8.92991 18.5523 8.80221 18.5366C8.67451 18.5208 8.55349 18.4663 8.45306 18.3792L5.22518 15.5756H2.04921C1.86807 15.5756 1.69435 15.4974 1.56626 15.3584C1.43817 15.2193 1.36621 15.0306 1.36621 14.8339V8.90038C1.36621 8.70367 1.43817 8.51502 1.56626 8.37592C1.69435 8.23683 1.86807 8.15869 2.04921 8.15869H5.22518L8.45306 5.3551C8.55356 5.26786 8.67471 5.21322 8.80255 5.19747C8.9304 5.18173 9.05974 5.20552 9.17568 5.2661Z" fill="#202124"/>
</svg>
