<svg xmlns="http://www.w3.org/2000/svg" viewBox="0 0 15.33 16.68"><defs><style>.cls-1{fill:#696969;}</style></defs><title>Recherche</title><g id="Calque_2" data-name="Calque 2"><g id="Calque_1-2" data-name="Calque 1"><path class="cls-1" d="M15.15,15.49l-3.69-4A7.39,7.39,0,0,0,12.92,7,6.77,6.77,0,0,0,6.46,0,6.76,6.76,0,0,0,0,7a6.76,6.76,0,0,0,6.46,7,6.12,6.12,0,0,0,4.09-1.59l3.69,4a.6.6,0,0,0,.9,0,.73.73,0,0,0,0-1ZM6.46,12.66A5.42,5.42,0,0,1,1.28,7,5.43,5.43,0,0,1,6.46,1.4,5.43,5.43,0,0,1,11.64,7a5.43,5.43,0,0,1-5.18,5.63Zm0,0"/></g></g></svg>