<svg width="32" height="34" viewBox="0 0 32 34" fill="#202124" xmlns="http://www.w3.org/2000/svg">
  <path
    d="M22.5744 29.7713C24.1213 28.0961 25.3481 26.1054 26.1843 23.9137C27.0205 21.722 27.4496 19.3724 27.4469 17C27.4496 14.6276 27.0205 12.2781 26.1843 10.0863C25.3481 7.89462 24.1213 5.90396 22.5744 4.22876L21.1889 5.73113C22.5539 7.20926 23.6363 8.96575 24.3742 10.8996C25.112 12.8335 25.4905 14.9067 25.4881 17C25.4881 21.4009 23.8444 25.3853 21.1889 28.2689L22.5744 29.7713Z"
    fill="white" />
  <path
    d="M19.8054 26.7666C20.9883 25.4855 21.9264 23.9632 22.5658 22.2871C23.2052 20.6111 23.5333 18.8143 23.5312 17.0001C23.5333 15.186 23.2052 13.3892 22.5658 11.7132C21.9264 10.0371 20.9883 8.51477 19.8054 7.23364L18.4219 8.73602C19.4228 9.82008 20.2165 11.1082 20.7575 12.5265C21.2986 13.9447 21.5761 15.465 21.5744 17.0001C21.5767 18.5354 21.2995 20.0561 20.7588 21.4747C20.2181 22.8933 19.4246 24.1819 18.4238 25.2664L19.8054 26.7666Z"
    fill="white" />
  <path
    d="M17.0384 23.7619C17.8573 22.8749 18.5067 21.8209 18.9493 20.6605C19.3919 19.5001 19.619 18.2562 19.6175 17.0002C19.619 15.7442 19.3919 14.5002 18.9493 13.3398C18.5067 12.1794 17.8573 11.1254 17.0384 10.2384L15.6549 11.7408C16.2918 12.4307 16.7969 13.2505 17.1411 14.1531C17.4853 15.0557 17.6619 16.0232 17.6607 17.0002C17.6618 17.9771 17.4852 18.9446 17.141 19.8472C16.7967 20.7497 16.2917 21.5696 15.6549 22.2595L17.0384 23.7619ZM13.1442 7.54392C13.31 7.63064 13.4499 7.76636 13.5478 7.9355C13.6458 8.10465 13.6978 8.30036 13.698 8.50017V25.5002C13.6977 25.7001 13.6455 25.8959 13.5474 26.065C13.4493 26.2342 13.3092 26.3699 13.1432 26.4564C12.9772 26.543 12.7921 26.5769 12.6092 26.5544C12.4263 26.5318 12.2529 26.4537 12.109 26.3289L7.48498 22.3127H2.93528C2.67578 22.3127 2.42691 22.2007 2.24342 22.0015C2.05993 21.8022 1.95685 21.532 1.95685 21.2502V12.7502C1.95685 12.4684 2.05993 12.1981 2.24342 11.9989C2.42691 11.7996 2.67578 11.6877 2.93528 11.6877H7.48498L12.109 7.67142C12.253 7.54644 12.4266 7.46817 12.6097 7.44561C12.7928 7.42306 12.9781 7.45713 13.1442 7.54392Z"
    fill="white" />
</svg>