<svg xmlns="http://www.w3.org/2000/svg" width="640" height="480">
  <rect width="640" height="480" fill="#244AA5"/>
  <path fill="#D0982A" d="M160 200h320v80H160z"/>
  <g fill="#FFFFFF">
    <polygon points="320,120 325,135 340,135 328,145 333,160 320,150 307,160 312,145 300,135 315,135"/>
    <polygon points="280,140 285,155 300,155 288,165 293,180 280,170 267,180 272,165 260,155 275,155"/>
    <polygon points="360,140 365,155 380,155 368,165 373,180 360,170 347,180 352,165 340,155 355,155"/>
    <polygon points="240,180 245,195 260,195 248,205 253,220 240,210 227,220 232,205 220,195 235,195"/>
    <polygon points="400,180 405,195 420,195 408,205 413,220 400,210 387,220 392,205 380,195 395,195"/>
    <polygon points="320,220 325,235 340,235 328,245 333,260 320,250 307,260 312,245 300,235 315,235"/>
  </g>
</svg>